<mxfile host="app.diagrams.net" agent="Mozilla/5.0 (Windows NT 10.0; Win64; x64) AppleWebKit/537.36 (KHTML, like Gecko) Chrome/132.0.0.0 Safari/537.36 OPR/117.0.0.0 (Edition std-1)" version="26.2.9">
  <diagram id="C5RBs43oDa-KdzZeNtuy" name="Page-1">
    <mxGraphModel dx="2854" dy="2089" grid="1" gridSize="10" guides="1" tooltips="1" connect="1" arrows="1" fold="1" page="0" pageScale="1" pageWidth="827" pageHeight="1169" math="0" shadow="0">
      <root>
        <mxCell id="WIyWlLk6GJQsqaUBKTNV-0" />
        <mxCell id="WIyWlLk6GJQsqaUBKTNV-1" parent="WIyWlLk6GJQsqaUBKTNV-0" />
        <mxCell id="fnbE6yRAtuJC7qQ22kXh-1" style="edgeStyle=orthogonalEdgeStyle;rounded=0;orthogonalLoop=1;jettySize=auto;html=1;" edge="1" parent="WIyWlLk6GJQsqaUBKTNV-1" source="fnbE6yRAtuJC7qQ22kXh-0" target="fnbE6yRAtuJC7qQ22kXh-2">
          <mxGeometry relative="1" as="geometry">
            <mxPoint x="190" y="80" as="targetPoint" />
          </mxGeometry>
        </mxCell>
        <mxCell id="fnbE6yRAtuJC7qQ22kXh-0" value="Abrir o App" style="ellipse;whiteSpace=wrap;html=1;aspect=fixed;" vertex="1" parent="WIyWlLk6GJQsqaUBKTNV-1">
          <mxGeometry x="40" y="40" width="80" height="80" as="geometry" />
        </mxCell>
        <mxCell id="fnbE6yRAtuJC7qQ22kXh-3" style="edgeStyle=orthogonalEdgeStyle;rounded=0;orthogonalLoop=1;jettySize=auto;html=1;" edge="1" parent="WIyWlLk6GJQsqaUBKTNV-1" source="fnbE6yRAtuJC7qQ22kXh-2" target="fnbE6yRAtuJC7qQ22kXh-7">
          <mxGeometry relative="1" as="geometry">
            <mxPoint x="334" y="80" as="targetPoint" />
          </mxGeometry>
        </mxCell>
        <mxCell id="fnbE6yRAtuJC7qQ22kXh-2" value="Tela de Login" style="rounded=0;whiteSpace=wrap;html=1;" vertex="1" parent="WIyWlLk6GJQsqaUBKTNV-1">
          <mxGeometry x="180" y="50" width="100" height="60" as="geometry" />
        </mxCell>
        <mxCell id="fnbE6yRAtuJC7qQ22kXh-5" style="edgeStyle=orthogonalEdgeStyle;rounded=0;orthogonalLoop=1;jettySize=auto;html=1;" edge="1" parent="WIyWlLk6GJQsqaUBKTNV-1" target="fnbE6yRAtuJC7qQ22kXh-6">
          <mxGeometry relative="1" as="geometry">
            <mxPoint x="500" y="80" as="targetPoint" />
            <mxPoint x="414" y="80" as="sourcePoint" />
          </mxGeometry>
        </mxCell>
        <mxCell id="fnbE6yRAtuJC7qQ22kXh-10" style="edgeStyle=orthogonalEdgeStyle;rounded=0;orthogonalLoop=1;jettySize=auto;html=1;" edge="1" parent="WIyWlLk6GJQsqaUBKTNV-1" source="fnbE6yRAtuJC7qQ22kXh-6" target="fnbE6yRAtuJC7qQ22kXh-25">
          <mxGeometry relative="1" as="geometry">
            <mxPoint x="640" y="80" as="targetPoint" />
          </mxGeometry>
        </mxCell>
        <mxCell id="fnbE6yRAtuJC7qQ22kXh-11" value="sim" style="edgeLabel;html=1;align=center;verticalAlign=middle;resizable=0;points=[];" vertex="1" connectable="0" parent="fnbE6yRAtuJC7qQ22kXh-10">
          <mxGeometry x="0.0533" y="-2" relative="1" as="geometry">
            <mxPoint as="offset" />
          </mxGeometry>
        </mxCell>
        <mxCell id="fnbE6yRAtuJC7qQ22kXh-20" value="" style="edgeStyle=orthogonalEdgeStyle;rounded=0;orthogonalLoop=1;jettySize=auto;html=1;" edge="1" parent="WIyWlLk6GJQsqaUBKTNV-1" source="fnbE6yRAtuJC7qQ22kXh-6" target="fnbE6yRAtuJC7qQ22kXh-19">
          <mxGeometry relative="1" as="geometry" />
        </mxCell>
        <mxCell id="fnbE6yRAtuJC7qQ22kXh-6" value="possui Cadastro" style="rhombus;whiteSpace=wrap;html=1;" vertex="1" parent="WIyWlLk6GJQsqaUBKTNV-1">
          <mxGeometry x="490" y="40" width="80" height="80" as="geometry" />
        </mxCell>
        <mxCell id="fnbE6yRAtuJC7qQ22kXh-7" value="Login" style="ellipse;whiteSpace=wrap;html=1;" vertex="1" parent="WIyWlLk6GJQsqaUBKTNV-1">
          <mxGeometry x="320" y="40" width="120" height="80" as="geometry" />
        </mxCell>
        <mxCell id="fnbE6yRAtuJC7qQ22kXh-23" style="edgeStyle=orthogonalEdgeStyle;rounded=0;orthogonalLoop=1;jettySize=auto;html=1;" edge="1" parent="WIyWlLk6GJQsqaUBKTNV-1" source="fnbE6yRAtuJC7qQ22kXh-19" target="fnbE6yRAtuJC7qQ22kXh-22">
          <mxGeometry relative="1" as="geometry" />
        </mxCell>
        <mxCell id="fnbE6yRAtuJC7qQ22kXh-19" value="Tela de Cadastro" style="whiteSpace=wrap;html=1;" vertex="1" parent="WIyWlLk6GJQsqaUBKTNV-1">
          <mxGeometry x="470" y="190" width="120" height="60" as="geometry" />
        </mxCell>
        <mxCell id="fnbE6yRAtuJC7qQ22kXh-24" style="edgeStyle=orthogonalEdgeStyle;rounded=0;orthogonalLoop=1;jettySize=auto;html=1;" edge="1" parent="WIyWlLk6GJQsqaUBKTNV-1" source="fnbE6yRAtuJC7qQ22kXh-22" target="fnbE6yRAtuJC7qQ22kXh-2">
          <mxGeometry relative="1" as="geometry" />
        </mxCell>
        <mxCell id="fnbE6yRAtuJC7qQ22kXh-22" value="Cadastro de usuário&amp;nbsp;" style="ellipse;whiteSpace=wrap;html=1;" vertex="1" parent="WIyWlLk6GJQsqaUBKTNV-1">
          <mxGeometry x="320" y="180" width="120" height="80" as="geometry" />
        </mxCell>
        <mxCell id="fnbE6yRAtuJC7qQ22kXh-26" style="edgeStyle=orthogonalEdgeStyle;rounded=0;orthogonalLoop=1;jettySize=auto;html=1;" edge="1" parent="WIyWlLk6GJQsqaUBKTNV-1" source="fnbE6yRAtuJC7qQ22kXh-25" target="fnbE6yRAtuJC7qQ22kXh-27">
          <mxGeometry relative="1" as="geometry">
            <mxPoint x="830" y="80" as="targetPoint" />
          </mxGeometry>
        </mxCell>
        <mxCell id="fnbE6yRAtuJC7qQ22kXh-25" value="Tela Home" style="rounded=0;whiteSpace=wrap;html=1;" vertex="1" parent="WIyWlLk6GJQsqaUBKTNV-1">
          <mxGeometry x="660" y="50" width="120" height="60" as="geometry" />
        </mxCell>
        <mxCell id="fnbE6yRAtuJC7qQ22kXh-31" value="" style="edgeStyle=orthogonalEdgeStyle;rounded=0;orthogonalLoop=1;jettySize=auto;html=1;" edge="1" parent="WIyWlLk6GJQsqaUBKTNV-1" source="fnbE6yRAtuJC7qQ22kXh-27" target="fnbE6yRAtuJC7qQ22kXh-30">
          <mxGeometry relative="1" as="geometry" />
        </mxCell>
        <mxCell id="fnbE6yRAtuJC7qQ22kXh-27" value="Selecionar Produtos" style="ellipse;whiteSpace=wrap;html=1;" vertex="1" parent="WIyWlLk6GJQsqaUBKTNV-1">
          <mxGeometry x="840" y="40" width="120" height="80" as="geometry" />
        </mxCell>
        <mxCell id="fnbE6yRAtuJC7qQ22kXh-33" style="edgeStyle=orthogonalEdgeStyle;rounded=0;orthogonalLoop=1;jettySize=auto;html=1;exitX=1;exitY=0.5;exitDx=0;exitDy=0;" edge="1" parent="WIyWlLk6GJQsqaUBKTNV-1" source="fnbE6yRAtuJC7qQ22kXh-30" target="fnbE6yRAtuJC7qQ22kXh-32">
          <mxGeometry relative="1" as="geometry" />
        </mxCell>
        <mxCell id="fnbE6yRAtuJC7qQ22kXh-30" value="Tela Produto" style="whiteSpace=wrap;html=1;" vertex="1" parent="WIyWlLk6GJQsqaUBKTNV-1">
          <mxGeometry x="1040" y="50" width="120" height="60" as="geometry" />
        </mxCell>
        <mxCell id="fnbE6yRAtuJC7qQ22kXh-43" style="edgeStyle=orthogonalEdgeStyle;rounded=0;orthogonalLoop=1;jettySize=auto;html=1;exitX=1;exitY=0.5;exitDx=0;exitDy=0;entryX=0;entryY=0.5;entryDx=0;entryDy=0;" edge="1" parent="WIyWlLk6GJQsqaUBKTNV-1" source="fnbE6yRAtuJC7qQ22kXh-32" target="fnbE6yRAtuJC7qQ22kXh-42">
          <mxGeometry relative="1" as="geometry" />
        </mxCell>
        <mxCell id="fnbE6yRAtuJC7qQ22kXh-32" value="Calcular Frete" style="ellipse;whiteSpace=wrap;html=1;" vertex="1" parent="WIyWlLk6GJQsqaUBKTNV-1">
          <mxGeometry x="1220" y="40" width="120" height="80" as="geometry" />
        </mxCell>
        <mxCell id="fnbE6yRAtuJC7qQ22kXh-38" style="edgeStyle=orthogonalEdgeStyle;rounded=0;orthogonalLoop=1;jettySize=auto;html=1;" edge="1" parent="WIyWlLk6GJQsqaUBKTNV-1" source="fnbE6yRAtuJC7qQ22kXh-35" target="fnbE6yRAtuJC7qQ22kXh-39">
          <mxGeometry relative="1" as="geometry">
            <mxPoint x="1910" y="80" as="targetPoint" />
          </mxGeometry>
        </mxCell>
        <mxCell id="fnbE6yRAtuJC7qQ22kXh-35" value="Tela de CheckOut/Pagamento" style="rounded=0;whiteSpace=wrap;html=1;" vertex="1" parent="WIyWlLk6GJQsqaUBKTNV-1">
          <mxGeometry x="1660" y="50" width="120" height="60" as="geometry" />
        </mxCell>
        <mxCell id="fnbE6yRAtuJC7qQ22kXh-40" style="edgeStyle=orthogonalEdgeStyle;rounded=0;orthogonalLoop=1;jettySize=auto;html=1;" edge="1" parent="WIyWlLk6GJQsqaUBKTNV-1" source="fnbE6yRAtuJC7qQ22kXh-39" target="fnbE6yRAtuJC7qQ22kXh-55">
          <mxGeometry relative="1" as="geometry">
            <mxPoint x="2120" y="80" as="targetPoint" />
          </mxGeometry>
        </mxCell>
        <mxCell id="fnbE6yRAtuJC7qQ22kXh-39" value="Seleção de pagamento" style="ellipse;whiteSpace=wrap;html=1;" vertex="1" parent="WIyWlLk6GJQsqaUBKTNV-1">
          <mxGeometry x="1920" y="40" width="120" height="80" as="geometry" />
        </mxCell>
        <mxCell id="fnbE6yRAtuJC7qQ22kXh-44" style="edgeStyle=orthogonalEdgeStyle;rounded=0;orthogonalLoop=1;jettySize=auto;html=1;exitX=1;exitY=0.5;exitDx=0;exitDy=0;" edge="1" parent="WIyWlLk6GJQsqaUBKTNV-1" source="fnbE6yRAtuJC7qQ22kXh-42" target="fnbE6yRAtuJC7qQ22kXh-35">
          <mxGeometry relative="1" as="geometry" />
        </mxCell>
        <mxCell id="fnbE6yRAtuJC7qQ22kXh-49" value="sim" style="edgeLabel;html=1;align=center;verticalAlign=middle;resizable=0;points=[];" vertex="1" connectable="0" parent="fnbE6yRAtuJC7qQ22kXh-44">
          <mxGeometry x="0.0533" y="-3" relative="1" as="geometry">
            <mxPoint as="offset" />
          </mxGeometry>
        </mxCell>
        <mxCell id="fnbE6yRAtuJC7qQ22kXh-45" style="edgeStyle=orthogonalEdgeStyle;rounded=0;orthogonalLoop=1;jettySize=auto;html=1;exitX=0.5;exitY=0;exitDx=0;exitDy=0;" edge="1" parent="WIyWlLk6GJQsqaUBKTNV-1" source="fnbE6yRAtuJC7qQ22kXh-42" target="fnbE6yRAtuJC7qQ22kXh-50">
          <mxGeometry relative="1" as="geometry">
            <mxPoint x="1470" y="-60" as="targetPoint" />
          </mxGeometry>
        </mxCell>
        <mxCell id="fnbE6yRAtuJC7qQ22kXh-46" value="não" style="edgeLabel;html=1;align=center;verticalAlign=middle;resizable=0;points=[];" vertex="1" connectable="0" parent="fnbE6yRAtuJC7qQ22kXh-45">
          <mxGeometry x="0.0386" y="-1" relative="1" as="geometry">
            <mxPoint as="offset" />
          </mxGeometry>
        </mxCell>
        <mxCell id="fnbE6yRAtuJC7qQ22kXh-42" value="Possuí endereço cadastrado" style="rhombus;whiteSpace=wrap;html=1;" vertex="1" parent="WIyWlLk6GJQsqaUBKTNV-1">
          <mxGeometry x="1400" y="40" width="140" height="80" as="geometry" />
        </mxCell>
        <mxCell id="fnbE6yRAtuJC7qQ22kXh-52" style="edgeStyle=orthogonalEdgeStyle;rounded=0;orthogonalLoop=1;jettySize=auto;html=1;exitX=0.5;exitY=0;exitDx=0;exitDy=0;" edge="1" parent="WIyWlLk6GJQsqaUBKTNV-1" source="fnbE6yRAtuJC7qQ22kXh-50" target="fnbE6yRAtuJC7qQ22kXh-53">
          <mxGeometry relative="1" as="geometry">
            <mxPoint x="1470" y="-190" as="targetPoint" />
          </mxGeometry>
        </mxCell>
        <mxCell id="fnbE6yRAtuJC7qQ22kXh-50" value="Tela Cadastro de endereco" style="rounded=0;whiteSpace=wrap;html=1;" vertex="1" parent="WIyWlLk6GJQsqaUBKTNV-1">
          <mxGeometry x="1410" y="-130" width="120" height="60" as="geometry" />
        </mxCell>
        <mxCell id="fnbE6yRAtuJC7qQ22kXh-54" style="edgeStyle=orthogonalEdgeStyle;rounded=0;orthogonalLoop=1;jettySize=auto;html=1;" edge="1" parent="WIyWlLk6GJQsqaUBKTNV-1" source="fnbE6yRAtuJC7qQ22kXh-53" target="fnbE6yRAtuJC7qQ22kXh-32">
          <mxGeometry relative="1" as="geometry" />
        </mxCell>
        <mxCell id="fnbE6yRAtuJC7qQ22kXh-53" value="Cadastro de Endereço" style="ellipse;whiteSpace=wrap;html=1;" vertex="1" parent="WIyWlLk6GJQsqaUBKTNV-1">
          <mxGeometry x="1410" y="-270" width="120" height="80" as="geometry" />
        </mxCell>
        <mxCell id="fnbE6yRAtuJC7qQ22kXh-57" style="edgeStyle=orthogonalEdgeStyle;rounded=0;orthogonalLoop=1;jettySize=auto;html=1;exitX=1;exitY=0.5;exitDx=0;exitDy=0;" edge="1" parent="WIyWlLk6GJQsqaUBKTNV-1" source="fnbE6yRAtuJC7qQ22kXh-55" target="fnbE6yRAtuJC7qQ22kXh-59">
          <mxGeometry relative="1" as="geometry">
            <mxPoint x="2280" y="80" as="targetPoint" />
          </mxGeometry>
        </mxCell>
        <mxCell id="fnbE6yRAtuJC7qQ22kXh-58" value="pix" style="edgeLabel;html=1;align=center;verticalAlign=middle;resizable=0;points=[];" vertex="1" connectable="0" parent="fnbE6yRAtuJC7qQ22kXh-57">
          <mxGeometry x="0.1537" y="-2" relative="1" as="geometry">
            <mxPoint as="offset" />
          </mxGeometry>
        </mxCell>
        <mxCell id="fnbE6yRAtuJC7qQ22kXh-55" value="Forma de Pagamento" style="rhombus;whiteSpace=wrap;html=1;" vertex="1" parent="WIyWlLk6GJQsqaUBKTNV-1">
          <mxGeometry x="2130" y="40" width="80" height="80" as="geometry" />
        </mxCell>
        <mxCell id="fnbE6yRAtuJC7qQ22kXh-60" style="edgeStyle=orthogonalEdgeStyle;rounded=0;orthogonalLoop=1;jettySize=auto;html=1;entryX=0.5;entryY=0;entryDx=0;entryDy=0;" edge="1" parent="WIyWlLk6GJQsqaUBKTNV-1" source="fnbE6yRAtuJC7qQ22kXh-59" target="fnbE6yRAtuJC7qQ22kXh-62">
          <mxGeometry relative="1" as="geometry">
            <mxPoint x="2350" y="180" as="targetPoint" />
          </mxGeometry>
        </mxCell>
        <mxCell id="fnbE6yRAtuJC7qQ22kXh-59" value="Tela de pagamento pix" style="rounded=0;whiteSpace=wrap;html=1;" vertex="1" parent="WIyWlLk6GJQsqaUBKTNV-1">
          <mxGeometry x="2290" y="50" width="120" height="60" as="geometry" />
        </mxCell>
        <mxCell id="fnbE6yRAtuJC7qQ22kXh-63" style="edgeStyle=orthogonalEdgeStyle;rounded=0;orthogonalLoop=1;jettySize=auto;html=1;exitX=0;exitY=0.5;exitDx=0;exitDy=0;entryX=0.5;entryY=1;entryDx=0;entryDy=0;" edge="1" parent="WIyWlLk6GJQsqaUBKTNV-1" source="fnbE6yRAtuJC7qQ22kXh-62" target="fnbE6yRAtuJC7qQ22kXh-25">
          <mxGeometry relative="1" as="geometry" />
        </mxCell>
        <mxCell id="fnbE6yRAtuJC7qQ22kXh-62" value="Realizar Pedido" style="ellipse;whiteSpace=wrap;html=1;" vertex="1" parent="WIyWlLk6GJQsqaUBKTNV-1">
          <mxGeometry x="2290" y="200" width="120" height="80" as="geometry" />
        </mxCell>
      </root>
    </mxGraphModel>
  </diagram>
</mxfile>
